<svg  viewBox="0 0 600 550" fill="none" width="100%" height="100%">
<path d="M378.529 458.333C368.824 476.667 351.177 488.889 332.647 488.889H317.647C288.529 488.889 264.706 461.389 264.706 427.778V325.926C264.706 275 300 234.259 344.118 234.259H370.588C373.235 234.259 375.882 235.278 378.529 236.296L410.294 254.63H454.412L486.177 236.296C488.824 235.278 491.471 234.259 494.118 234.259H520.588C564.706 234.259 600 275 600 325.926V427.778C600 461.389 576.177 488.889 547.059 488.889H532.059C513.529 488.889 495.882 476.667 486.177 458.333L465.882 417.593H398.824L378.529 458.333ZM344.118 275C319.412 275 300 297.407 300 325.926V427.778C300 438.981 307.941 448.148 317.647 448.148H332.647C338.824 448.148 345 444.074 347.647 437.963L373.235 387.037C375.882 380.926 382.059 376.852 388.235 376.852H476.471C482.647 376.852 488.824 380.926 491.471 387.037L517.059 437.963C519.706 444.074 525.882 448.148 532.059 448.148H547.059C556.765 448.148 564.706 438.981 564.706 427.778V325.926C564.706 297.407 545.294 275 520.588 275H498.529L466.765 293.333C464.118 294.352 461.471 295.37 458.824 295.37H405.882C403.235 295.37 400.588 294.352 397.941 293.333L366.176 275H344.118ZM52.9412 0H176.471C205.588 0 229.412 27.5 229.412 61.1111V488.889C229.412 522.5 205.588 550 176.471 550H52.9412C23.8235 550 0 522.5 0 488.889V61.1111C0 27.5 23.8235 0 52.9412 0ZM52.9412 40.7407C43.2353 40.7407 35.2941 49.9074 35.2941 61.1111V488.889C35.2941 500.093 43.2353 509.259 52.9412 509.259H176.471C186.176 509.259 194.118 500.093 194.118 488.889V61.1111C194.118 49.9074 186.176 40.7407 176.471 40.7407H52.9412ZM114.706 478.704C85.5882 478.704 61.7647 451.204 61.7647 417.593C61.7647 383.981 85.5882 356.481 114.706 356.481C143.824 356.481 167.647 383.981 167.647 417.593C167.647 451.204 143.824 478.704 114.706 478.704ZM114.706 437.963C124.412 437.963 132.353 428.796 132.353 417.593C132.353 406.389 124.412 397.222 114.706 397.222C105 397.222 97.0588 406.389 97.0588 417.593C97.0588 428.796 105 437.963 114.706 437.963ZM132.353 295.37C132.353 306.574 124.412 315.741 114.706 315.741C105 315.741 97.0588 306.574 97.0588 295.37V101.852C97.0588 90.6481 105 81.4815 114.706 81.4815C124.412 81.4815 132.353 90.6481 132.353 101.852V295.37Z" fill=current/>
</svg>
