<svg version="1.1" x="0px" y="0px" viewBox="0 0 100 125">
<g transform="translate(0,-952.36218)">
<path  style="text-indent:0;text-transform:none;direction:ltr;block-progression:tb;baseline-shift:baseline;color:#000000;enable-background:accumulate;" d="m 18,971.375 c -2.824621,0 -5,2.20742 -5,5 l 0,42 a 1.0001,1.0001 0 0 0 1,1 l 72,0 a 1.0001,1.0001 0 0 0 1,-1 l 0,-42 c 0,-2.79258 -2.175378,-5 -5,-5 l -64,0 z m 0,2 64,0 c 1.868086,0 3,1.15914 3,3 l 0,41 -70,0 0,-41 c 0,-1.84086 1.131917,-3 3,-3 z" fill=current fill-opacity="1" stroke=current marker="none" visibility="visible" display="inline" overflow="visible"/>
<path style="text-indent:0;text-transform:none;direction:ltr;block-progression:tb;baseline-shift:baseline;color:#000000;enable-background:accumulate;" d="m 7.8125,1024.375 a 1.0001,1.0001 0 0 0 -0.8125,1 l 0,3 c 8e-7,1.6609 0.9933752,3.0068 2.3125,3.8125 1.319125,0.8057 2.975189,1.1875 4.6875,1.1875 l 72,0 c 1.712433,0 3.368397,-0.3818 4.6875,-1.1875 1.319103,-0.8057 2.312499,-2.1516 2.3125,-3.8125 l 0,-3 a 1.0001,1.0001 0 0 0 -1,-1 l -38.1875,0 -7.625,0 -38.1875,0 a 1.0001,1.0001 0 0 0 -0.1875,0 z m 1.1875,2 37.1875,0 7.625,0 37.1875,0 0,2 c 0,0.916 -0.44307,1.5436 -1.34375,2.0938 -0.90068,0.5501 -2.247814,0.9062 -3.65625,0.9062 l -72,0 c -1.408289,0 -2.755525,-0.3561 -3.65625,-0.9062 C 9.4430252,1029.9186 9.0000005,1029.291 9,1028.375 l 0,-2 z" fill=current fill-opacity="1" marker="none" visibility="visible" display="inline" overflow="visible"/>
</g>
</svg>