<svg xmlns:dc="http://purl.org/dc/elements/1.1/" xmlns:cc="http://creativecommons.org/ns#" xmlns:rdf="http://www.w3.org/1999/02/22-rdf-syntax-ns#" xmlns:svg="http://www.w3.org/2000/svg" xmlns="http://www.w3.org/2000/svg" xmlns:sodipodi="http://sodipodi.sourceforge.net/DTD/sodipodi-0.dtd" xmlns:inkscape="http://www.inkscape.org/namespaces/inkscape" version="1.1" x="0px" y="0px" viewBox="0 0 100 125"><g transform="translate(0,-952.36218)"><path style="font-size:medium;font-style:normal;font-variant:normal;font-weight:normal;font-stretch:normal;text-indent:0;text-align:start;text-decoration:none;line-height:normal;letter-spacing:normal;word-spacing:normal;text-transform:none;direction:ltr;block-progression:tb;writing-mode:lr-tb;text-anchor:start;baseline-shift:baseline;opacity:1;color:#000000;fill:#000000;fill-opacity:1;stroke:none;stroke-width:6;marker:none;visibility:visible;display:inline;overflow:visible;enable-background:accumulate;font-family:Sans;-inkscape-font-specification:Sans" d="M 19 6 C 11.85583 6 6 11.85583 6 19 C 6 26.14417 11.855833 32 19 32 C 26.144167 32 32 26.14417 32 19 C 32 11.85583 26.14417 6 19 6 z M 19 12 C 21.573252 12 23.78399 13.369112 25 15.40625 L 20.34375 18.5 A 3.0003 3.0003 0 1 0 23.65625 23.46875 L 25.0625 22.53125 C 23.860138 24.623853 21.6149 26 19 26 C 15.098473 26 12 22.90153 12 19 C 12 15.09847 15.098476 12 19 12 z M 71 32 C 64.745426 32 60.370469 34.57565 57.03125 37.5625 C 56.854634 37.1753 56.828145 36.7469 56.5625 36.375 C 55.888691 35.43167 54.842339 34.70787 53.84375 34.375 C 52.845161 34.04213 51.916666 34 51 34 L 44 34 C 42.166667 34 39.933122 34.31688 38.25 36 C 36.566878 37.68312 36 40.1 36 43 L 36 85 C 36 87.9018 36.565861 90.3169 38.25 92 C 39.934139 93.6831 42.168133 94 44 94 L 51 94 C 52.830367 94 55.064821 93.683 56.75 92 C 58.435179 90.317 59 87.9037 59 85 L 59 61 C 59 58.6714 59.747795 56.47205 60.78125 55.03125 C 61.814705 53.59055 62.94095 53 64 53 L 66 53 C 67.05905 53 68.185295 53.59055 69.21875 55.03125 C 70.252205 56.47205 71 58.6714 71 61 L 71 85 C 71 87.9 71.566878 90.28555 73.25 91.96875 C 74.933122 93.65185 77.166667 94 79 94 L 86 94 C 87.833333 94 90.066878 93.65185 91.75 91.96875 C 93.433122 90.28555 94 87.9 94 85 L 94 56 C 94 49.2049 92.723398 43.1501 88.9375 38.71875 C 85.151602 34.2874 79.078368 32 71 32 z M 16 34 C 14.164889 34.00004 11.934215 34.31688 10.25 36 C 8.5657852 37.68312 8 40.1 8 43 L 8 85 C 8 87.9 8.566878 90.28555 10.25 91.96875 C 11.933122 93.65185 14.166667 94 16 94 L 23 94 C 24.833333 94 27.066878 93.65185 28.75 91.96875 C 30.433122 90.28555 31 87.9 31 85 L 31 43 C 31 40.1 30.433122 37.68312 28.75 36 C 27.066878 34.31688 24.833333 34 23 34 L 16 34 z M 71 38 C 77.993061 38 81.928755 39.7617 84.375 42.625 C 86.821245 45.4883 88 49.9737 88 56 L 88 62.6875 L 80.40625 67.4375 A 3.0044108 3.0044108 0 1 0 83.59375 72.53125 L 88 69.78125 L 88 85 C 88 87.1 87.566878 87.6831 87.5 87.75 C 87.43312 87.817 87.166667 88 86 88 L 79 88 C 77.833333 88 77.566878 87.8169 77.5 87.75 C 77.43312 87.683 77 87.1 77 85 L 77 61 C 77 57.4562 75.952295 54.12245 74.09375 51.53125 C 72.235205 48.94015 69.372949 47 66 47 L 64 47 C 60.627051 47 57.764795 48.94015 55.90625 51.53125 C 54.047705 54.12245 53 57.4562 53 61 L 53 85 C 53 87.1052 52.564821 87.6853 52.5 87.75 C 52.43518 87.815 52.169633 88 51 88 L 44 88 C 42.831867 88 42.565861 87.8158 42.5 87.75 C 42.43414 87.684 42 87.1026 42 85 L 42 43 C 42 40.9 42.433122 40.28563 42.5 40.21875 C 42.56688 40.15185 42.833333 40 44 40 L 47.40625 40 L 45.25 41.53125 A 3.0133573 3.0133573 0 1 0 48.75 46.4375 L 52 44.125 A 3.0003 3.0003 0 0 0 57.34375 45.875 C 60.670709 41.72705 63.880255 38 71 38 z M 16 40 L 23 40 C 24.166667 40 24.433122 40.15187 24.5 40.21875 C 24.56688 40.28565 25 40.9 25 43 L 25 55.75 L 17.1875 61.59375 A 3.0003 3.0003 0 1 0 20.8125 66.375 L 25 63.25 L 25 85 C 25 87.1 24.566878 87.6831 24.5 87.75 C 24.43312 87.817 24.166667 88 23 88 L 16 88 C 14.833333 88 14.566878 87.8169 14.5 87.75 C 14.43312 87.683 14 87.1 14 85 L 14 43 C 14 40.9 14.433064 40.28564 14.5 40.21875 C 14.56694 40.15185 14.830507 40.00002 16 40 z " transform="translate(0,952.36218)"/></g></svg>