<svg xmlns="http://www.w3.org/2000/svg" xmlns:xlink="http://www.w3.org/1999/xlink" xmlns:serif="http://www.serif.com/" viewBox="0 0 48 60" version="1.1" xml:space="preserve" style="" x="0px" y="0px" fill-rule="evenodd" clip-rule="evenodd" stroke-linejoin="round" stroke-miterlimit="2"><g transform="matrix(1,0,0,1,-174,-232)"><path d="M202.148,237.393L203.051,234.684C203.226,234.16 203.793,233.877 204.316,234.051C204.84,234.226 205.123,234.793 204.949,235.316L204.125,237.787C205.867,238.303 207.47,239.247 208.778,240.555C210.841,242.618 212,245.416 212,248.333L212,251L214,251C214.796,251 215.559,251.316 216.121,251.879C216.684,252.441 217,253.204 217,254L217,262C217,262.552 216.552,263 216,263L212,263L212,268C212,268.552 211.552,269 211,269L208,269L208,274C208,274.796 207.684,275.559 207.121,276.121C206.559,276.684 205.796,277 205,277L204,277C203.204,277 202.441,276.684 201.879,276.121C201.316,275.559 201,274.796 201,274L201,269L195,269L195,274C195,274.796 194.684,275.559 194.121,276.121C193.559,276.684 192.796,277 192,277L191,277C190.204,277 189.441,276.684 188.879,276.121C188.316,275.559 188,274.796 188,274L188,269L185,269C184.448,269 184,268.552 184,268L184,263L180,263C179.448,263 179,262.552 179,262L179,254C179,253.204 179.316,252.441 179.879,251.879C180.441,251.316 181.204,251 182,251L184,251L184,248.333C184,245.416 185.159,242.618 187.222,240.555C188.53,239.247 190.133,238.303 191.875,237.787L191.051,235.316C190.877,234.793 191.16,234.226 191.684,234.051C192.207,233.877 192.774,234.16 192.949,234.684L193.852,237.393C194.231,237.354 194.615,237.333 195,237.333L201,237.333C201.385,237.333 201.769,237.354 202.148,237.393ZM193,269L190,269L190,274C190,274.265 190.105,274.52 190.293,274.707C190.48,274.895 190.735,275 191,275L192,275C192.265,275 192.52,274.895 192.707,274.707C192.895,274.52 193,274.265 193,274L193,269ZM206,269L203,269L203,274C203,274.265 203.105,274.52 203.293,274.707C203.48,274.895 203.735,275 204,275L205,275C205.265,275 205.52,274.895 205.707,274.707C205.895,274.52 206,274.265 206,274L206,269ZM210,267L210,249L186,249L186,267L210,267ZM184,253L182,253C181.735,253 181.48,253.105 181.293,253.293C181.105,253.48 181,253.735 181,254L181,261L184,261L184,253ZM212,261L215,261L215,254C215,253.735 214.895,253.48 214.707,253.293C214.52,253.105 214.265,253 214,253L212,253L212,261ZM209.901,247C209.617,245.106 208.734,243.34 207.364,241.969C205.676,240.282 203.387,239.333 201,239.333L195,239.333C192.613,239.333 190.324,240.282 188.636,241.969C187.266,243.34 186.383,245.106 186.099,247L209.901,247Z"/></g><text x="0" y="63" fill="#000000" font-size="5px" font-weight="bold" font-family="'Helvetica Neue', Helvetica, Arial-Unicode, Arial, Sans-serif">Created by Blangcon</text><text x="0" y="68" fill="#000000" font-size="5px" font-weight="bold" font-family="'Helvetica Neue', Helvetica, Arial-Unicode, Arial, Sans-serif">from the Noun Project</text></svg>