<svg   xmlns="http://www.w3.org/2000/svg"  x="0px" y="0px" viewBox="0 0 100 125"><g transform="translate(0,-952.36218)"><path d="m 74.9375,959.3622 c 1.15056,0 2.0625,0.8972 2.0625,2.0312 l 0,81.9063 c 0,1.1343 -0.91194,2.0625 -2.0625,2.0625 l -49.875,0 c -1.15056,0 -2.0625,-0.9282 -2.0625,-2.0625 l 0,-81.9063 c 0,-1.134 0.91194,-2.0312 2.0625,-2.0312 l 4.9375,0 z m -3.9375,6 -21.625,0 13.0625,11.1562 -15.15625,-11.1562 -18.28125,0 c 7.1e-4,16.07129 10e-6,32.5783 0,48.375 l 6.875,-7.8438 5,1.3126 7.90625,-15.0313 16.53125,-11.3437 -15.5,12.375 -8.28125,15.5 -5.15625,-1.0313 -7.375,9 c 5e-5,4.7147 -4.5e-4,10.5113 0,14.6875 l 42,0 c 4.4e-4,-21.9294 2.3e-4,-47.23041 0,-66 z m -17.7187,70 c -2.17376,-10e-4 -4.40868,0 -6.2812,0 -1.05886,-0.018 -2.0353,0.941 -2.0353,2 0,1.059 0.97644,2.0185 2.0353,2 l 6,0 c 1.0472,0.098 2.08932,-0.7653 2.1875,-1.8125 -0.0377,-1.2543 -0.81235,-2.1885 -1.9063,-2.1875 z" style="color:#000000;enable-background:accumulate;" fill=current stroke="none" marker="none" visibility="visible" display="inline" overflow="visible"/></g></svg>