<svg x="0px" y="0px" viewBox="0 0 126.6 117.5" enable-background="new 0 0 126.6 94" ><path fill="#000000" d="M109.5,25.7c-0.6-2.7-2.9-12.1-6.5-15.7l-0.3-0.3c-3.9-3.9-8.3-8.3-19.2-9.3c-0.8-0.1-1.6-0.1-2.4-0.1  c-10,0-15.6,5.9-19.7,11.7c-2.1,2.9-3.5,7-5,11.4c-1.5,4.3-3,8.8-5.3,11.8c-4.7,6.4-13.2,7.6-17.9,7.8c-0.3,0-0.6,0-0.9,0  c-5.7,0-12.7-1.9-18.6-5.1c-5-2.7-10.3-9.2-10.4-9.3l-2.3-2.7l-0.4,3.5c0,0.5-1.2,11.1-0.6,18.7c0.9,11.4,6.8,23.5,15.2,31.6  C25.3,89.3,39.1,94,57.6,94c27.9,0,40.4-20.1,45.1-27.7c5.1-8.2,6.2-18,6.4-20.9l17.5-11.1L109.5,25.7z M106.2,43.7l0,0.8  c0,0.1-0.5,11.3-6,20.2C95.7,71.9,83.8,91,57.6,91c-17.7,0-30.8-4.4-40.2-13.4C9.6,70.1,4,58.5,3.2,47.9c-0.4-4.7,0-10.9,0.3-14.7  c2.2,2.3,5.6,5.5,8.9,7.4c6.3,3.4,13.8,5.5,20,5.5c0.3,0,0.6,0,1,0c5.2-0.2,14.8-1.6,20.2-9c2.5-3.4,4.1-8.1,5.7-12.6  c1.4-4.1,2.8-8,4.6-10.6c3.9-5.4,8.6-10.4,17.2-10.4c0.7,0,1.4,0,2.2,0.1c9.8,0.9,13.6,4.7,17.3,8.4l0.3,0.3  c2.9,2.9,5.2,11.7,5.8,14.9l0.1,0.7l13.7,6.8L106.2,43.7z"/><path fill="#000000" d="M89.6,15.1c-4.9,0-8.9,4-8.9,8.9s4,8.9,8.9,8.9s8.9-4,8.9-8.9S94.5,15.1,89.6,15.1z M89.6,29.8  c-3.2,0-5.9-2.6-5.9-5.9s2.6-5.9,5.9-5.9s5.9,2.6,5.9,5.9S92.9,29.8,89.6,29.8z"/></svg>