<svg xmlns="http://www.w3.org/2000/svg" viewBox="0 0 100 125" x="0px" y="0px"><path d="M72.5,51.61v4.92H68V52.59a5.74,5.74,0,0,0-1.76-4.43,5.91,5.91,0,0,0-4.15-1.62H57.45a9.47,9.47,0,0,1-7-3,9.83,9.83,0,0,1-3-7.1,10.09,10.09,0,0,1,10-10v4.5a5.48,5.48,0,0,0-3.93,1.48A4.91,4.91,0,0,0,52,36.14a6.18,6.18,0,0,0,1.62,4.22,5,5,0,0,0,3.86,1.82h4.64a10.79,10.79,0,0,1,7.39,2.68A8.63,8.63,0,0,1,72.5,51.61Zm4.85-10.83a16,16,0,0,0-6.82-6.05,9.76,9.76,0,0,0,3-7.17,9.59,9.59,0,0,0-3-7,9.6,9.6,0,0,0-7-3v4.5A5.51,5.51,0,0,1,69,27.56a5.48,5.48,0,0,1-1.61,4,5.27,5.27,0,0,1-3.87,1.61v4.5A11.46,11.46,0,0,1,72,41.2a11.81,11.81,0,0,1,3.44,8.58v6.75H80V49.78A16.44,16.44,0,0,0,77.35,40.78ZM64.9,59.48h7.6v13H31.58L28.7,69.35H20.05V62.61H28.7l2.88-3.13H64.9Zm10.55,13H80v-13h-4.5ZM59,67.09l-8.42-4.48v2.26H44.34l8.43,4.48V67.09Z"/></svg>