<svg xmlns="http://www.w3.org/2000/svg" xmlns:xlink="http://www.w3.org/1999/xlink" version="1.1" x="0px" y="0px" viewBox="0 0 64 80" style="enable-background:new 0 0 64 64;" xml:space="preserve"><g><path d="M47,1c-8.822,0-16,7.178-16,16s7.178,16,16,16s16-7.178,16-16S55.822,1,47,1z M45,30.84V18   c0-0.351-0.185-0.677-0.485-0.857L40,14.434v-3.02l2.016-2.016C42.22,11.97,44.377,14,47,14s4.78-2.03,4.984-4.602L54,11.414v3.02   l-4.515,2.709C49.185,17.323,49,17.649,49,18v12.84C48.345,30.935,47.681,31,47,31S45.655,30.935,45,30.84z M51,30.41V18.566   l4.515-2.709C55.815,15.677,56,15.351,56,15v-4c0-0.265-0.105-0.52-0.293-0.707l-4-4c-0.286-0.287-0.715-0.37-1.09-0.217   C50.243,6.231,50,6.596,50,7v2c0,1.654-1.346,3-3,3s-3-1.346-3-3V7c0-0.404-0.243-0.769-0.617-0.924   c-0.374-0.154-0.803-0.07-1.09,0.217l-4,4C38.105,10.48,38,10.735,38,11v4c0,0.351,0.185,0.677,0.485,0.857L43,18.566V30.41   C37.225,28.684,33,23.329,33,17c0-7.72,6.28-14,14-14s14,6.28,14,14C61,23.329,56.775,28.684,51,30.41z"/><path d="M30,37H20c-1.654,0-3,1.346-3,3s1.346,3,3,3h10c1.654,0,3-1.346,3-3S31.654,37,30,37z M30,41H20c-0.552,0-1-0.449-1-1   s0.448-1,1-1h10c0.552,0,1,0.449,1,1S30.552,41,30,41z"/><path d="M47,49.184V48c0-3.519-2.614-6.432-6-6.92V40c0-0.552-0.447-1-1-1h-3.181C35.863,33.334,30.934,29,25,29   c-5.213,0-9.647,3.347-11.3,8H10c-0.553,0-1,0.448-1,1v0.899C6.721,38.434,5,36.414,5,34v-1.184C6.161,32.402,7,31.302,7,30v-4H5v4   c0,0.551-0.448,1-1,1s-1-0.449-1-1v-4H1v4c0,1.302,0.839,2.402,2,2.816V34c0,3.519,2.614,6.432,6,6.92V42c0,0.552,0.447,1,1,1h3   v10.101C10.721,53.566,9,55.586,9,58c0,2.757,2.243,5,5,5c2.414,0,4.434-1.721,4.899-4h1.202c0.465,2.279,2.484,4,4.899,4   s4.434-1.721,4.899-4h1.202c0.465,2.279,2.484,4,4.899,4c2.757,0,5-2.243,5-5c0-2.414-1.721-4.434-4-4.899V45h3   c0.553,0,1-0.448,1-1v-0.899c2.279,0.465,4,2.484,4,4.899v1.184c-1.161,0.414-2,1.514-2,2.816v4h2v-4c0-0.551,0.448-1,1-1   s1,0.449,1,1v4h2v-4C49,50.698,48.161,49.598,47,49.184z M11,41v-2h2.181C13.071,39.652,13,40.317,13,41H11z M14,61   c-1.654,0-3-1.346-3-3s1.346-3,3-3s3,1.346,3,3S15.654,61,14,61z M25,61c-1.654,0-3-1.346-3-3s1.346-3,3-3s3,1.346,3,3   S26.654,61,25,61z M31.101,57h-1.202c-0.465-2.279-2.484-4-4.899-4s-4.434,1.721-4.899,4h-1.202C18.5,55.044,16.956,53.5,15,53.101   V41c0-5.514,4.486-10,10-10s10,4.486,10,10v12.101C33.044,53.5,31.5,55.044,31.101,57z M39,58c0,1.654-1.346,3-3,3s-3-1.346-3-3   s1.346-3,3-3S39,56.346,39,58z M39,43h-2v-2h2V43z"/><rect x="13" y="57" width="2" height="2"/><rect x="24" y="57" width="2" height="2"/><rect x="35" y="57" width="2" height="2"/></g></svg>