<svg viewBox="0 0 800 1200"  x="0px" y="0px" fill-rule="evenodd" clip-rule="evenodd">


<g>
<path class="fil0" d="M76 30l154 0 -18 18 15 21 -57 0c-29,0 -29,44 0,44l89 0 22 32 -230 0 0 721 496 0 0 -411c3,2 6,3 10,4 4,13 12,25 22,35l14 14 0 453c0,42 -35,76 -77,76l-440 0c-42,0 -76,-34 -76,-76l0 -855c0,-42 34,-76 76,-76zm545 373l40 -40c13,-13 35,-13 49,0l97 97c13,13 13,35 0,49l-40 40c-14,14 -36,14 -49,0l-97 -97c-14,-13 -14,-35 0,-49zm5 -259c-34,-85 51,-170 137,-136l-40 39c-39,39 21,99 60,59l39 -39c34,86 -51,171 -137,137l-95 96 22 22 14 -14c8,-8 22,-8 30,0l0 0c8,8 8,22 0,30l-60 60c-8,8 -21,8 -30,0l0 0c-8,-9 -8,-22 0,-30l18 -17 -23 -23 -99 99c34,86 -51,171 -137,137l39 -39c40,-39 -20,-99 -59,-60l-39 39c-34,-85 51,-170 137,-137l99 -99 -101 -101 -44 -19 -68 -94 27 -26 94 67 19 44 101 101 96 -96zm-206 -114l96 0c21,0 39,8 53,21 -9,23 -12,49 -9,75l-19 19 -22 0 -40 -40 -22 -49 -37 -26zm-169 875l91 0c63,0 63,95 0,95l-91 0c-63,0 -63,-95 0,-95z"/>
</g>
</svg>