<svg xmlns="http://www.w3.org/2000/svg" xmlns:xlink="http://www.w3.org/1999/xlink" version="1.1" x="0px" y="0px" viewBox="0 0 100 125" style="enable-background:new 0 0 100 100;" xml:space="preserve"><path d="M21.1279297,90h57.7441406c2.9667969,0,5.3808594-2.4140625,5.3808594-5.3808594V15.3808594  C84.2529297,12.4140625,81.8388672,10,78.8720703,10H21.1279297c-2.9667969,0-5.3808594,2.4140625-5.3808594,5.3808594v69.2382812  C15.7470703,87.5859375,18.1611328,90,21.1279297,90z M17.7470703,15.3808594C17.7470703,13.5166016,19.2636719,12,21.1279297,12  h57.7441406c1.8642578,0,3.3808594,1.5166016,3.3808594,3.3808594v69.2382812C82.2529297,86.4833984,80.7363281,88,78.8720703,88  H21.1279297c-1.8642578,0-3.3808594-1.5166016-3.3808594-3.3808594V15.3808594z"/><path d="M50,83.1943359c3.0073242,0,5.4541016-2.425293,5.4541016-5.40625S53.0073242,72.3818359,50,72.3818359  s-5.4541016,2.425293-5.4541016,5.40625S46.9926758,83.1943359,50,83.1943359z M50,74.3818359  c1.9047852,0,3.4541016,1.527832,3.4541016,3.40625S51.9047852,81.1943359,50,81.1943359s-3.4541016-1.527832-3.4541016-3.40625  S48.0952148,74.3818359,50,74.3818359z"/><path d="M42.4511719,64.1801758c0.1953125,0.1953125,0.4511719,0.2929688,0.7070312,0.2929688  s0.5117188-0.0976562,0.7070312-0.2929688c0.390625-0.390625,0.390625-1.0234375,0-1.4140625l-8.0629883-8.0625  c-0.390625-0.390625-1.0234375-0.390625-1.4140625,0s-0.390625,1.0234375,0,1.4140625L42.4511719,64.1801758z"/><path d="M27.2983398,55.6479492c-0.390625-0.390625-1.0234375-0.390625-1.4140625,0s-0.390625,1.0234375,0,1.4140625l8.0625,8.0625  c0.1953125,0.1953125,0.4511719,0.2929688,0.7070312,0.2929688s0.5117188-0.0976562,0.7070312-0.2929688  c0.390625-0.390625,0.390625-1.0234375,0-1.4140625L27.2983398,55.6479492z"/><path d="M28.8662109,50.5952148c0.1953125,0.1953125,0.4511719,0.2929688,0.7070312,0.2929688  s0.5117188-0.0976562,0.7070312-0.2929688c0.390625-0.390625,0.390625-1.0234375,0-1.4140625l-3.4238281-3.4238281  c-0.390625-0.390625-1.0234375-0.390625-1.4140625,0s-0.390625,1.0234375,0,1.4140625L28.8662109,50.5952148z"/><path d="M47.1772461,17.3510742h5.6455078c0.5522461,0,1-0.4477539,1-1s-0.4477539-1-1-1h-5.6455078c-0.5522461,0-1,0.4477539-1,1  S46.625,17.3510742,47.1772461,17.3510742z"/></svg>